<svg width="218" height="218" viewBox="0 0 218 218" fill="none" xmlns="http://www.w3.org/2000/svg">
<circle cx="109" cy="109" r="104.824" stroke="black" stroke-opacity="0.1" stroke-width="8.35249"/>
<path d="M211.831 134.057C213.75 134.057 215.425 132.739 215.808 130.859C217.246 123.797 218 116.487 218 109C218 48.801 169.199 0 109 0C106.172 0 103.37 0.107694 100.596 0.319203C98.4828 0.48033 96.8892 2.26901 96.8892 4.38818C96.8892 6.88038 99.067 8.80567 101.553 8.62387C104.012 8.444 106.495 8.35249 109 8.35249C164.586 8.35249 209.648 53.4139 209.648 109C209.648 115.8 208.973 122.442 207.688 128.864C207.158 131.511 209.132 134.057 211.831 134.057Z" fill="white"/>
</svg>
